<svg width="18" height="11" viewBox="0 0 18 11" fill="white" xmlns="http://www.w3.org/2000/svg">
  <path d="M16.8233 9.17675L16.8232 9.17677L16.4697 9.53035C16.4697 9.53036 16.4697 9.53036 16.4697 9.53037C16.3721 9.62798 16.2138 9.62798 16.1162 9.53035C16.1162 9.53035 16.1162 9.53035 16.1161 9.53035L9.35359 2.76775L9.00004 2.41419L8.64648 2.76775L1.88388 9.53035C1.78625 9.62799 1.62803 9.62799 1.53039 9.53035L1.17679 9.17675C1.07915 9.07911 1.07915 8.92089 1.17679 8.82326L8.82329 1.17676C8.92093 1.07912 9.07915 1.07912 9.17678 1.17675L16.8233 8.82325C16.8233 8.82325 16.8233 8.82325 16.8233 8.82325C16.9209 8.92089 16.9209 9.07912 16.8233 9.17675Z" fill="white" stroke="white"/>
</svg>
